<?xml version="1.0" encoding="utf-8"?>
<!-- Generator: Adobe Illustrator 23.1.1, SVG Export Plug-In . SVG Version: 6.00 Build 0)  -->
<svg version="1.1" xmlns="http://www.w3.org/2000/svg" xmlns:xlink="http://www.w3.org/1999/xlink" x="0px" y="0px"
	 viewBox="0 0 1080 1080" style="enable-background:new 0 0 1080 1080;" xml:space="preserve">
<style type="text/css">
	.st0{display:none;}
	.st1{display:inline;}
	.st2{fill:#FFFFFF;}
	.st3{display:inline;fill:#FFFFFF;}
	.st4{fill:#F7931E;}
</style>
<g id="Capa_1" class="st0">
	<g class="st1">
		<rect x="61.5" y="77.5" class="st2" width="949" height="949"/>
		<path d="M1010,78v948H62V78H1010 M1011,77H61v950h950V77L1011,77z"/>
	</g>
	<g>
		<path class="st3" d="M788.6,395h-0.7v-1.8C788.1,393.8,788.3,394.4,788.6,395z"/>
		<path class="st1" d="M787.9,393.2v1.8h0.7C788.3,394.4,788.1,393.8,787.9,393.2L787.9,393.2z"/>
	</g>
	<g>
		<path class="st3" d="M788.6,395h-0.7v-1.8C788.1,393.8,788.3,394.4,788.6,395z"/>
		<path class="st1" d="M787.9,393.2v1.8h0.7C788.3,394.4,788.1,393.8,787.9,393.2L787.9,393.2z"/>
	</g>
	<g>
		<path class="st3" d="M536,1026.5c-90.2,0-174.9-29.8-238.7-83.8c-63.7-54-98.8-125.8-98.8-202.2c0-2.9,0.1-5.7,0.2-8.5l0-0.5h-0.2
			v-336h0.2l0-0.5c-0.1-3-0.2-6.2-0.2-9.5c0-82.3,35.1-159.6,98.8-217.8c63.7-58.2,148.5-90.2,238.7-90.2
			c97.6,0,190.5,38.6,254.6,105.8c53.4,56,82.9,127.8,82.9,202.2c0,3.1,0,6.1-0.1,9h-84.4c-0.2-0.5-0.4-1-0.5-1.5
			c-43.8-117.6-143-193.5-252.7-193.5c-110.4,0-209.9,76.7-253.4,195.3l-0.2,0.7h0.9v336.1l0,0.1c19,45.6,52.5,84.6,96.9,112.8
			c45.3,28.8,98.7,44,154.4,44c114,0,215.4-64.8,253.2-161.4v204.3c-31.3,29.6-68.8,53-111.3,69.5
			C632,1017.8,584.9,1026.5,536,1026.5z"/>
		<path class="st1" d="M536,78c49.6,0,97.4,9.6,142,28.6c43.1,18.3,80.9,44.3,112.2,77.1c26.1,27.4,46.6,58.4,60.7,92.2
			c14.6,35,22,71.8,22,109.6c0,2.9,0,5.8-0.1,8.5h-83.6c-0.1-0.4-0.3-0.8-0.4-1.1c-21.2-56.8-55.8-105.1-100-139.7
			c-45.4-35.4-98.4-54.2-153.2-54.2c-55.1,0-108.3,18.9-153.9,54.7c-44.4,34.9-79,83.6-100,140.9l-0.5,1.3h1.1v335.5v0.2l0.1,0.2
			c9.5,22.7,22.7,44,39.3,63.3c16.4,19.1,35.9,35.8,57.8,49.7C425,873.7,478.5,889,534.2,889c57.3,0,111.9-16,158.1-46.3
			c22.2-14.6,41.8-32.1,58.1-52c15.4-18.7,27.6-39.3,36.5-61.1v201.4c-31.2,29.5-68.6,52.8-111,69.2c-44,17-91.1,25.7-139.9,25.7
			c-45.5,0-89.7-7.6-131.2-22.5c-40.1-14.4-76.2-35-107.1-61.2c-30.9-26.2-55.2-56.8-72.2-90.8C207.9,816.4,199,779,199,740.5
			c0-2.9,0.1-5.7,0.2-8.5l0-1H199V396h0.2l0-1c-0.1-3-0.2-6.2-0.2-9.5c0-41.5,8.9-81.8,26.5-119.7c17-36.6,41.3-69.5,72.2-97.7
			c30.9-28.2,67-50.4,107.1-65.9C446.3,86.1,490.5,78,536,78 M536,77c-186.7,0-338,138.1-338,308.5c0,3.2,0,6.4,0.2,9.5H198v337h0.2
			c-0.1,2.8-0.2,5.7-0.2,8.5c0,158.2,151.3,286.5,338,286.5c100.1,0,190-36.9,251.9-95.5V724.4C752,819.5,652,888,534.2,888
			c-114.8,0-212.7-65-250.8-156.5V395h-0.7c42-114.7,139.4-195,252.9-195c112.9,0,209.9,79.5,252.3,193.2c0.2,0.6,0.4,1.2,0.7,1.8
			h85.3c0.1-3.1,0.2-6.3,0.2-9.5c0-77.5-31.3-148.3-83-202.5C729,118.1,637.8,77,536,77L536,77z"/>
	</g>
	<g>
		<rect x="788.4" y="574.5" class="st3" width="85.1" height="452"/>
		<path class="st1" d="M873,575v451h-84.1V575H873 M874,574h-86.1v453H874V574L874,574z"/>
	</g>
	<g>
		<path class="st3" d="M787.9,393.2c0.2,0.6,0.4,1.2,0.7,1.8h-0.7V393.2z"/>
		<path class="st1" d="M787.9,393.2v1.8h0.7C788.3,394.4,788.1,393.8,787.9,393.2L787.9,393.2z"/>
	</g>
	<g>
		<path class="st3" d="M874,385.5v9.5h-0.2C874,391.8,874,388.7,874,385.5z"/>
		<path class="st1" d="M874,385.5c0,3.2,0,6.3-0.2,9.5h0.2V385.5L874,385.5z"/>
	</g>
</g>
<g id="Capa_2">
	<g>
		<rect x="760" y="606" class="st4" width="142" height="421"/>
	</g>
	<g>
		<path class="st2" d="M173.1,434c-0.1,3-0.1,6-0.1,9v-9H173.1z"/>
		<path d="M173.1,434H173v9C173,440,173,437,173.1,434L173.1,434z"/>
	</g>
	<g>
		<path class="st2" d="M173.3,677H173v-16C173,666.4,173.1,671.7,173.3,677z"/>
		<path d="M173,661v16h0.3C173.1,671.7,173,666.4,173,661L173,661z"/>
	</g>
	<g>
		<path d="M539,87c31.6,0,62.8,4.1,93,12.3c29.3,7.9,57.4,19.6,83.8,34.7c52,29.8,95.9,72.6,127.2,123.7
			c15.8,25.8,28.2,53.6,36.9,82.5c8.9,29.7,14,60.6,14.9,91.9c0,0.5-0.5,1-1,1H767.5c-0.2-28.1-5.3-54.9-15.4-79.8
			c-8.3-20.5-19.9-39.8-34.5-57.4c-14.2-17.1-30.8-32.2-49.4-44.9c-18.6-12.7-38.6-22.5-59.5-29.4c-21.5-7-43.4-10.6-65-10.6
			c-22.8,0-45.2,3.4-66.7,10.1c-21.8,6.8-42.5,17.1-61.3,30.7c-15.2,10.9-29.4,24-42,38.9c-21.1,24.9-32,47.6-34.8,53.9
			c-10.5,23.6-16.6,49.1-18.4,75.8c0,0.1,0,0.2,0,0.3l0,0.2l0,0.7c0,0.1,0,0.2,0,0.3c-0.4,81.5-0.8,163.1-1.2,244.6
			c-1.7,31.1,2.9,61,13.6,88.7c6.9,18.1,16.9,35.8,29.7,52.7c13.3,17.7,28.9,33.4,46.5,46.9c39.9,30.7,86.4,47,134.5,47.1l0.5,0
			c23.9,0,47.7-4,70.6-11.8c22.3-7.6,43.4-18.8,62.7-33.1c19.2-14.3,36.1-31.5,50.3-51.1c14.5-20,25.7-42.2,33.5-65.7
			c2.4-7.2,1.2-14.9-3.3-21c-4.4-6.1-11.5-9.7-19.1-9.7L507.5,710c-1.9,0-3.5-1.6-3.5-3.5v-90.1c0-1.9,1.6-3.5,3.5-3.5h384.1
			c1.9,0,3.5,1.6,3.5,3.5v397.1c0,1.9-1.6,3.5-3.5,3.5H770.5c-1.9,0-3.5-1.6-3.5-3.5v-32.9c0-12.9-10.5-23.5-23.5-23.5
			c-4.4,0-8.8,1.3-12.6,3.7C673.7,997.6,607.3,1017,539,1017c-92.4,0-179.9-35.2-246.6-99.2c-32.4-31.1-58.3-67.5-77-108.2
			c-19.3-41.9-30.1-86.7-32.1-133.1c-0.2-5.2-0.3-10.4-0.3-15.6V443c0-2.8,0-5.7,0.1-8.8c1.1-47.1,11.3-92.7,30.3-135.5
			c18.4-41.4,44.2-78.5,76.7-110.3c32.6-31.8,70.3-56.8,112.2-74.2C445.7,96.1,491.6,87,539,87 M539,77
			c-199.1,0-361.1,159-365.9,357c-0.1,3-0.1,6-0.1,9v218c0,5.4,0.1,10.7,0.4,16c8.4,194.7,168.9,350,365.6,350
			c72.7,0,140.4-21.2,197.3-57.7c2.3-1.5,4.8-2.1,7.2-2.1c7,0,13.5,5.6,13.5,13.5v32.9c0,7.4,6,13.5,13.5,13.5h121.1
			c7.4,0,13.5-6,13.5-13.5V616.5c0-7.4-6-13.5-13.5-13.5H507.5c-7.4,0-13.5,6-13.5,13.5v90.1c0,7.4,6,13.5,13.5,13.5c0,0,0,0,0,0
			c77.1-0.1,154.1-0.3,231.2-0.4c0,0,0,0,0,0c9.1,0,15.7,8.9,12.8,17.6C721.4,829.1,636.9,892,544,892c-0.2,0-0.3,0-0.5,0
			c-99.9-0.2-175.5-73.1-201.3-140.3c-13.1-34-14-65-12.9-84.8c0.4-81.6,0.8-163.2,1.2-244.8c0-0.3,0-0.6,0-0.9
			c2.2-32.9,11-57.5,17.6-72.4c3.7-8.3,41.1-89.7,131.9-118c20.1-6.3,41.5-9.7,63.7-9.7c83.8,0,166.9,56.5,199.1,135.9
			c6.9,17,15.9,46.2,14.5,85.5v0.5h136.5c6.1,0,11-4.9,11-11c-1.9-65.7-21.2-127-53.3-179.5C787.2,147.2,671.3,77,539,77L539,77z"/>
	</g>
	<g>
		<circle class="st4" cx="831" cy="524" r="71.5"/>
		<path d="M831,455c38,0,69,31,69,69s-31,69-69,69s-69-31-69-69S793,455,831,455 M831,450c-40.9,0-74,33.1-74,74s33.1,74,74,74
			s74-33.1,74-74S871.9,450,831,450L831,450z"/>
	</g>
</g>
</svg>
