<?xml version="1.0" encoding="utf-8"?>
<!-- Generator: Adobe Illustrator 23.1.1, SVG Export Plug-In . SVG Version: 6.00 Build 0)  -->
<svg version="1.1" id="Capa_1" xmlns="http://www.w3.org/2000/svg" xmlns:xlink="http://www.w3.org/1999/xlink" x="0px" y="0px"
	 viewBox="0 0 1080 1080" style="enable-background:new 0 0 1080 1080;" xml:space="preserve">
<style type="text/css">
	.st0{display:none;}
	.st1{display:inline;}
	.st2{fill:#FFFFFF;}
	.st3{fill:#FFFFFF;stroke:#FFFFFF;stroke-width:15;stroke-miterlimit:10;}
	.st4{fill:#FFAC00;stroke:#000000;stroke-width:15;stroke-miterlimit:10;}
	.st5{fill:none;stroke:#000000;stroke-width:15;stroke-miterlimit:10;}
	.st6{fill:#FFAC00;}
</style>
<g class="st0">
	<g class="st1">
		<rect x="61.5" y="77.5" class="st2" width="949" height="949"/>
		<path d="M1010,78v948H62V78H1010 M1011,77H61v950h950V77L1011,77z"/>
	</g>
	<g class="st1">
		<path class="st2" d="M788.6,395h-0.7v-1.8C788.1,393.8,788.3,394.4,788.6,395z"/>
		<path d="M787.9,393.2v1.8h0.7C788.3,394.4,788.1,393.8,787.9,393.2L787.9,393.2z"/>
	</g>
	<g class="st1">
		<path class="st2" d="M788.6,395h-0.7v-1.8C788.1,393.8,788.3,394.4,788.6,395z"/>
		<path d="M787.9,393.2v1.8h0.7C788.3,394.4,788.1,393.8,787.9,393.2L787.9,393.2z"/>
	</g>
	<g class="st1">
		<path class="st2" d="M536,1026.5c-90.2,0-174.9-29.8-238.7-83.8c-63.7-54-98.8-125.8-98.8-202.2c0-2.9,0.1-5.7,0.2-8.5v-0.5h-0.2
			v-336h0.2V395c-0.1-3-0.2-6.2-0.2-9.5c0-82.3,35.1-159.6,98.8-217.8S445.8,77.5,536,77.5c97.6,0,190.5,38.6,254.6,105.8
			c53.4,56,82.9,127.8,82.9,202.2c0,3.1,0,6.1-0.1,9H789c-0.2-0.5-0.4-1-0.5-1.5c-43.8-117.6-143-193.5-252.7-193.5
			c-110.4,0-209.9,76.7-253.4,195.3l-0.2,0.7h0.9v336.1v0.1c19,45.6,52.5,84.6,96.9,112.8c45.3,28.8,98.7,44,154.4,44
			c114,0,215.4-64.8,253.2-161.4v204.3c-31.3,29.6-68.8,53-111.3,69.5C632,1017.8,584.9,1026.5,536,1026.5z"/>
		<path d="M536,78c49.6,0,97.4,9.6,142,28.6c43.1,18.3,80.9,44.3,112.2,77.1c26.1,27.4,46.6,58.4,60.7,92.2
			c14.6,35,22,71.8,22,109.6c0,2.9,0,5.8-0.1,8.5h-83.6c-0.1-0.4-0.3-0.8-0.4-1.1c-21.2-56.8-55.8-105.1-100-139.7
			c-45.4-35.4-98.4-54.2-153.2-54.2c-55.1,0-108.3,18.9-153.9,54.7c-44.4,34.9-79,83.6-100,140.9l-0.5,1.3h1.1v335.5v0.2l0.1,0.2
			c9.5,22.7,22.7,44,39.3,63.3c16.4,19.1,35.9,35.8,57.8,49.7c45.5,28.9,99,44.2,154.7,44.2c57.3,0,111.9-16,158.1-46.3
			c22.2-14.6,41.8-32.1,58.1-52c15.4-18.7,27.6-39.3,36.5-61.1V931c-31.2,29.5-68.6,52.8-111,69.2c-44,17-91.1,25.7-139.9,25.7
			c-45.5,0-89.7-7.6-131.2-22.5c-40.1-14.4-76.2-35-107.1-61.2s-55.2-56.8-72.2-90.8c-17.6-35-26.5-72.4-26.5-110.9
			c0-2.9,0.1-5.7,0.2-8.5v-1H199V396h0.2v-1c-0.1-3-0.2-6.2-0.2-9.5c0-41.5,8.9-81.8,26.5-119.7c17-36.6,41.3-69.5,72.2-97.7
			s67-50.4,107.1-65.9C446.3,86.1,490.5,78,536,78 M536,77c-186.7,0-338,138.1-338,308.5c0,3.2,0,6.4,0.2,9.5H198v337h0.2
			c-0.1,2.8-0.2,5.7-0.2,8.5c0,158.2,151.3,286.5,338,286.5c100.1,0,190-36.9,251.9-95.5V724.4C752,819.5,652,888,534.2,888
			c-114.8,0-212.7-65-250.8-156.5V395h-0.7c42-114.7,139.4-195,252.9-195c112.9,0,209.9,79.5,252.3,193.2c0.2,0.6,0.4,1.2,0.7,1.8
			h85.3c0.1-3.1,0.2-6.3,0.2-9.5c0-77.5-31.3-148.3-83-202.5C729,118.1,637.8,77,536,77L536,77z"/>
	</g>
	<g class="st1">
		<rect x="788.4" y="574.5" class="st2" width="85.1" height="452"/>
		<path d="M873,575v451h-84.1V575H873 M874,574h-86.1v453H874V574L874,574z"/>
	</g>
	<g class="st1">
		<path class="st2" d="M787.9,393.2c0.2,0.6,0.4,1.2,0.7,1.8h-0.7V393.2z"/>
		<path d="M787.9,393.2v1.8h0.7C788.3,394.4,788.1,393.8,787.9,393.2L787.9,393.2z"/>
	</g>
	<g class="st1">
		<path class="st2" d="M874,385.5v9.5h-0.2C874,391.8,874,388.7,874,385.5z"/>
		<path d="M874,385.5c0,3.2,0,6.3-0.2,9.5h0.2V385.5L874,385.5z"/>
	</g>
</g>
<g>
	<path class="st3" d="M554.6,62.9c-199.1,0-361.1,159-365.9,357c-0.1,3-0.1,6-0.1,9v218c0,5.4,0.1,10.7,0.4,16
		c8.4,194.7,168.9,350,365.6,350c72.7,0,140.4-21.2,197.3-57.7c2.3-1.5,4.8-2.1,7.2-2.1c7,0,13.5,5.6,13.5,13.5v32.9
		c0,7.4,6,13.5,13.5,13.5h121.1c7.4,0,13.5-6,13.5-13.5V602.4c0-7.4-6-13.5-13.5-13.5H523.1c-7.4,0-13.5,6-13.5,13.5v90.1
		c0,7.4,6,13.5,13.5,13.5c77.1-0.1,154.1-0.3,231.2-0.4c9.1,0,15.7,8.9,12.8,17.6C737,815,652.5,877.9,559.6,877.9
		c-0.2,0-0.5,0-0.5,0c-50.4-0.1-98.8-30.2-127.4-68c-28.6-37.7-33.5-78-34.5-96.6l-6.3-330.7c0-1.6,0.1-3.2,0.3-4.8
		c13.7-92.1,85.3-162.1,168.1-170.8c93.8-9.9,187.9,60.3,208.3,163.7c2.7,13.5,14.5,23.4,28.3,23.5c31.8,0.3,63.7,0.6,95.5,0.9
		c14.3,0.1,25.3-12.7,23-26.8c-5.8-35.9-18.6-82.3-47.4-130C798.6,125.1,691.6,62.9,554.6,62.9z"/>
</g>
<path class="st4" d="M902.4,1013H793.9c-11,0-19.9-8.9-19.9-19.9V608.9c0-11,8.9-19.9,19.9-19.9h108.5c11,0,19.9,8.9,19.9,19.9
	v384.3C922.3,1004.1,913.4,1013,902.4,1013z"/>
<g>
	<path class="st5" d="M554.6,62.9c-199.1,0-361.1,159-365.9,357c-0.1,3-0.1,6-0.1,9v218c0,5.4,0.1,10.7,0.4,16
		c8.4,194.7,168.9,350,365.6,350c72.7,0,140.4-21.2,197.3-57.7c2.3-1.5,4.8-2.1,7.2-2.1c7,0,13.5,5.6,13.5,13.5v32.9
		c0,7.4,6,13.5,13.5,13.5h121.1c7.4,0,13.5-6,13.5-13.5V602.4c0-7.4-6-13.5-13.5-13.5H523.1c-7.4,0-13.5,6-13.5,13.5v90.1
		c0,7.4,6,13.5,13.5,13.5c77.1-0.1,154.1-0.3,231.2-0.4c9.1,0,15.7,8.9,12.8,17.6C737,815,652.5,877.9,559.6,877.9
		c-0.2,0-0.5,0-0.5,0c-50.4-0.1-98.8-30.2-127.4-68c-28.6-37.7-33.5-78-34.5-96.6l-6.3-330.7c0-1.6,0.1-3.2,0.3-4.8
		c13.7-92.1,85.3-162.1,168.1-170.8c93.8-9.9,187.9,60.3,208.3,163.7c2.7,13.5,14.5,23.4,28.3,23.5c31.8,0.3,63.7,0.6,95.5,0.9
		c14.3,0.1,25.3-12.7,23-26.8c-5.8-35.9-18.6-82.3-47.4-130C798.6,125.1,691.6,62.9,554.6,62.9z"/>
</g>
<g>
	
		<ellipse transform="matrix(0.7071 -0.7071 0.7071 0.7071 -103.6732 743.9008)" class="st6" cx="846.2" cy="497.1" rx="70.3" ry="72.1"/>
</g>
</svg>
